<?xml version="1.0" encoding="utf-8"?>
<!-- Generator: Adobe Illustrator 23.0.2, SVG Export Plug-In . SVG Version: 6.00 Build 0)  -->
<svg version="1.1" id="Calque_1" xmlns="http://www.w3.org/2000/svg" xmlns:xlink="http://www.w3.org/1999/xlink" x="0px" y="0px"
	 viewBox="0 0 1000 1000" style="enable-background:new 0 0 1000 1000;" xml:space="preserve">
<style type="text/css">
	.st0{display:none;}
	.st1{display:inline;}
	.st2{fill:#FFFFFF;}
	.st3{display:inline;fill:none;stroke:#F3E728;stroke-width:14;stroke-miterlimit:10;}
</style>
<g class="st0">
	<g class="st1">
		<polygon points="1000.84,0.48 1000.84,393.03 607.82,393.03 607.82,392.7 394.25,392.7 394.25,1000.55 0.72,1000.55 0.72,0.48 		
			"/>
		<rect x="607.82" y="606.6" width="393.02" height="393.95"/>
		<polygon class="st2" points="1000.84,393.03 1000.84,606.6 607.82,606.6 607.82,1000.55 394.25,1000.55 394.25,392.7 
			607.82,392.7 607.82,393.03 		"/>
	</g>
</g>
<rect x="393.22" y="0.46" width="213.46" height="999.43"/>
<g id="Calque_4" class="st0">
	<g class="st1">
		<rect x="0.73" y="606.61" width="393" height="393"/>
		<rect x="607.13" y="606.61" width="393" height="393"/>
		<rect x="0.73" y="0.2" width="393" height="393"/>
		<rect x="607.13" y="0.2" width="393" height="393"/>
		<polygon class="st2" points="1000.13,393.2 1000.13,606.61 607.13,606.61 607.13,999.61 393.72,999.61 393.72,606.61 0.73,606.61 
			0.73,393.2 393.72,393.2 393.72,0.2 607.13,0.2 607.13,393.2 		"/>
	</g>
</g>
<g id="Calque_5" class="st0">
	<g class="st1">
		<rect x="0.46" y="0.65" width="393.31" height="1000.2"/>
		<rect x="607.35" y="607.54" width="393.31" height="393.31"/>
		<rect x="607.35" y="0.65" width="393.31" height="393.31"/>
		<polygon class="st2" points="393.76,1000.85 607.35,1000.85 607.35,607.54 1000.65,607.54 1000.65,393.96 607.35,393.96 
			607.35,0.65 393.76,0.65 		"/>
	</g>
</g>
<g class="st0">
	<rect x="1.65" y="0.33" class="st3" width="999.65" height="1000.17"/>
</g>
</svg>
